<svg width="300" height="300" viewBox="0 0 300 300" fill="none" xmlns="http://www.w3.org/2000/svg">
  <circle cx="149.999" cy="150.001" r="150" fill="url(#paint0_linear_172_65)" />
  <circle cx="149.999" cy="150" r="124.6" stroke="url(#paint1_linear_172_65)" stroke-width="0.8" />
  <circle cx="149.999" cy="150" r="119.6" fill="url(#paint2_linear_172_65)" stroke="#353535" stroke-width="0.8" />
  <path fill-rule="evenodd" clip-rule="evenodd"
    d="M209.981 239.224C192.848 250.765 172.21 257.5 149.999 257.5C90.6288 257.5 42.4994 209.371 42.4994 150C42.4994 90.6298 90.6288 42.5004 149.999 42.5004C209.37 42.5004 257.499 90.6298 257.499 150C257.499 184.293 241.442 214.836 216.436 234.519L216.453 234.527L216.07 234.806C214.131 236.319 212.138 237.767 210.095 239.147L209.981 239.23L209.981 239.224ZM209.877 238.328C192.804 249.924 172.193 256.7 149.999 256.7C127.993 256.7 107.543 250.038 90.5551 238.621L90.6868 237.485L85.8327 233.958L84.7691 234.446C59.5424 214.931 43.2994 184.362 43.2994 150C43.2994 139.857 44.7149 130.044 47.3591 120.748L48.5093 120.516L50.3634 114.81L49.5514 113.927C63.9531 73.8304 101.681 44.8541 146.371 43.361L146.999 44.4759H152.999L153.627 43.361C198.324 44.8543 236.056 73.8382 250.453 113.943L249.655 114.81L251.51 120.516L252.639 120.744C255.283 130.041 256.699 139.855 256.699 150C256.699 184.186 240.623 214.617 215.617 234.144L214.601 233.679L209.747 237.206L209.877 238.328Z"
    fill="url(#paint3_linear_172_65)" />
  <circle cx="149.999" cy="150" r="88.25" fill="url(#paint4_linear_172_65)" stroke="url(#paint5_linear_172_65)" />
  <circle cx="150" cy="150" r="60.5" fill="url(#paint6_linear_172_65)" stroke="url(#paint7_linear_172_65)" />
  <path
    d="M150 91.6185L162.995 131.614L163.107 131.959H163.47H205.524L171.502 156.678L171.208 156.891L171.32 157.237L184.316 197.232L150.293 172.514L150 172.3L149.706 172.514L115.683 197.232L128.679 157.237L128.791 156.891L128.497 156.678L94.475 131.959H136.529H136.892L137.004 131.614L150 91.6185Z"
    fill="url(#paint8_linear_172_65)" stroke="url(#paint9_linear_172_65)" />
  <mask id="path-8-inside-1_172_65" fill="white">
    <path fill-rule="evenodd" clip-rule="evenodd"
      d="M152.468 142.391H147.531L140 131L148 104H152L160 131L152.468 142.391ZM157.999 150.004L156.473 145.309L164.979 134.626L193.13 133.891L194.366 137.695L171.159 153.647L157.999 150.004ZM156.471 154.705L152.476 157.607L153.079 171.249L175.421 188.39L178.657 186.039L169.259 159.493L156.471 154.705ZM143.536 154.708L147.531 157.611L146.928 171.253L124.586 188.394L121.35 186.043L130.748 159.497L143.536 154.708ZM142.006 149.988L143.532 145.292L135.026 134.609L106.875 133.874L105.639 137.679L128.846 153.631L142.006 149.988Z" />
  </mask>
  <path fill-rule="evenodd" clip-rule="evenodd"
    d="M152.468 142.391H147.531L140 131L148 104H152L160 131L152.468 142.391ZM157.999 150.004L156.473 145.309L164.979 134.626L193.13 133.891L194.366 137.695L171.159 153.647L157.999 150.004ZM156.471 154.705L152.476 157.607L153.079 171.249L175.421 188.39L178.657 186.039L169.259 159.493L156.471 154.705ZM143.536 154.708L147.531 157.611L146.928 171.253L124.586 188.394L121.35 186.043L130.748 159.497L143.536 154.708ZM142.006 149.988L143.532 145.292L135.026 134.609L106.875 133.874L105.639 137.679L128.846 153.631L142.006 149.988Z"
    fill="url(#paint10_linear_172_65)" />
  <path
    d="M147.531 142.391L146.697 142.943L146.993 143.391H147.531V142.391ZM152.468 142.391V143.391H153.006L153.302 142.943L152.468 142.391ZM140 131L139.041 130.716L138.908 131.163L139.165 131.552L140 131ZM148 104V103H147.253L147.041 103.716L148 104ZM152 104L152.958 103.716L152.746 103H152V104ZM160 131L160.834 131.552L161.091 131.163L160.958 130.716L160 131ZM156.473 145.309L155.691 144.686L155.356 145.106L155.522 145.618L156.473 145.309ZM157.999 150.004L157.048 150.313L157.214 150.825L157.732 150.968L157.999 150.004ZM164.979 134.626L164.953 133.626L164.487 133.639L164.197 134.003L164.979 134.626ZM193.13 133.891L194.081 133.582L193.85 132.872L193.104 132.891L193.13 133.891ZM194.366 137.695L194.932 138.519L195.548 138.096L195.317 137.386L194.366 137.695ZM171.159 153.647L170.893 154.611L171.342 154.735L171.726 154.471L171.159 153.647ZM152.476 157.607L151.888 156.798L151.454 157.114L151.477 157.651L152.476 157.607ZM156.471 154.705L156.821 153.768L156.318 153.58L155.883 153.896L156.471 154.705ZM153.079 171.249L152.08 171.293L152.1 171.758L152.47 172.042L153.079 171.249ZM175.421 188.39L174.812 189.183L175.405 189.638L176.009 189.199L175.421 188.39ZM178.657 186.039L179.245 186.848L179.849 186.409L179.6 185.705L178.657 186.039ZM169.259 159.493L170.202 159.159L170.046 158.72L169.61 158.557L169.259 159.493ZM147.531 157.611L148.53 157.655L148.553 157.118L148.118 156.802L147.531 157.611ZM143.536 154.708L144.124 153.899L143.689 153.583L143.185 153.772L143.536 154.708ZM146.928 171.253L147.537 172.046L147.907 171.762L147.927 171.297L146.928 171.253ZM124.586 188.394L123.998 189.203L124.602 189.642L125.195 189.187L124.586 188.394ZM121.35 186.043L120.407 185.709L120.158 186.413L120.762 186.852L121.35 186.043ZM130.748 159.497L130.397 158.56L129.961 158.724L129.805 159.163L130.748 159.497ZM143.532 145.292L144.483 145.601L144.649 145.09L144.314 144.669L143.532 145.292ZM142.006 149.988L142.273 150.952L142.791 150.808L142.957 150.297L142.006 149.988ZM135.026 134.609L135.808 133.986L135.518 133.622L135.052 133.61L135.026 134.609ZM106.875 133.874L106.901 132.875L106.155 132.855L105.924 133.565L106.875 133.874ZM105.639 137.679L104.688 137.37L104.457 138.08L105.073 138.503L105.639 137.679ZM128.846 153.631L128.279 154.455L128.663 154.719L129.112 154.594L128.846 153.631ZM147.531 143.391H152.468V141.391H147.531V143.391ZM139.165 131.552L146.697 142.943L148.365 141.84L140.834 130.449L139.165 131.552ZM147.041 103.716L139.041 130.716L140.958 131.285L148.958 104.285L147.041 103.716ZM152 103H148V105H152V103ZM160.958 130.716L152.958 103.716L151.041 104.285L159.041 131.285L160.958 130.716ZM153.302 142.943L160.834 131.552L159.165 130.449L151.634 141.84L153.302 142.943ZM155.522 145.618L157.048 150.313L158.95 149.695L157.424 145L155.522 145.618ZM164.197 134.003L155.691 144.686L157.255 145.931L165.761 135.249L164.197 134.003ZM193.104 132.891L164.953 133.626L165.005 135.626L193.156 134.891L193.104 132.891ZM195.317 137.386L194.081 133.582L192.179 134.2L193.415 138.004L195.317 137.386ZM171.726 154.471L194.932 138.519L193.799 136.871L170.593 152.823L171.726 154.471ZM157.732 150.968L170.893 154.611L171.426 152.683L158.266 149.041L157.732 150.968ZM153.064 158.416L157.059 155.514L155.883 153.896L151.888 156.798L153.064 158.416ZM154.078 171.205L153.475 157.563L151.477 157.651L152.08 171.293L154.078 171.205ZM176.03 187.597L153.687 170.455L152.47 172.042L174.812 189.183L176.03 187.597ZM178.069 185.23L174.833 187.581L176.009 189.199L179.245 186.848L178.069 185.23ZM168.316 159.827L177.714 186.373L179.6 185.705L170.202 159.159L168.316 159.827ZM156.12 155.641L168.908 160.43L169.61 158.557L156.821 153.768L156.12 155.641ZM148.118 156.802L144.124 153.899L142.948 155.517L146.943 158.42L148.118 156.802ZM147.927 171.297L148.53 157.655L146.532 157.566L145.929 171.208L147.927 171.297ZM125.195 189.187L147.537 172.046L146.32 170.459L123.977 187.6L125.195 189.187ZM120.762 186.852L123.998 189.203L125.174 187.585L121.938 185.234L120.762 186.852ZM129.805 159.163L120.407 185.709L122.293 186.376L131.691 159.831L129.805 159.163ZM143.185 153.772L130.397 158.56L131.099 160.433L143.887 155.645L143.185 153.772ZM142.581 144.983L141.055 149.679L142.957 150.297L144.483 145.601L142.581 144.983ZM134.244 135.232L142.749 145.915L144.314 144.669L135.808 133.986L134.244 135.232ZM106.849 134.874L135 135.609L135.052 133.61L106.901 132.875L106.849 134.874ZM106.59 137.988L107.826 134.183L105.924 133.565L104.688 137.37L106.59 137.988ZM129.412 152.806L106.206 136.855L105.073 138.503L128.279 154.455L129.412 152.806ZM141.739 149.024L128.579 152.667L129.112 154.594L142.273 150.952L141.739 149.024Z"
    fill="url(#paint11_linear_172_65)" mask="url(#path-8-inside-1_172_65)" />
  <defs>
    <linearGradient id="paint0_linear_172_65" x1="239.948" y1="18.8854" x2="61.9959" y2="268.428"
      gradientUnits="userSpaceOnUse">
      <stop stop-color="#E95E61" />
      <stop offset="0.378125" stop-color="#C03134" />
      <stop offset="0.773958" stop-color="#7B0D0F" />
    </linearGradient>
    <linearGradient id="paint1_linear_172_65" x1="251.313" y1="7.38401" x2="62.2083" y2="271.768"
      gradientUnits="userSpaceOnUse">
      <stop stop-color="#9C3131" />
      <stop offset="0.565625" stop-color="#7A0000" />
      <stop offset="1" stop-color="#200000" />
    </linearGradient>
    <linearGradient id="paint2_linear_172_65" x1="227.828" y1="57.3379" x2="75.9561" y2="246.313"
      gradientUnits="userSpaceOnUse">
      <stop stop-color="white" />
      <stop offset="0.336458" stop-color="#BDD3DF" />
      <stop offset="1" stop-color="#8C9DA7" />
    </linearGradient>
    <linearGradient id="paint3_linear_172_65" x1="225.723" y1="47.2917" x2="80.8959" y2="244.66"
      gradientUnits="userSpaceOnUse">
      <stop stop-color="#828282" />
      <stop offset="0.39496" stop-color="#535353" />
      <stop offset="1" stop-color="#131313" />
    </linearGradient>
    <linearGradient id="paint4_linear_172_65" x1="203.219" y1="72.424" x2="97.9307" y2="220.07"
      gradientUnits="userSpaceOnUse">
      <stop stop-color="#E95E61" />
      <stop offset="0.378125" stop-color="#C03134" />
      <stop offset="0.773958" stop-color="#7B0D0F" />
    </linearGradient>
    <linearGradient id="paint5_linear_172_65" x1="221.932" y1="48.7428" x2="87.6677" y2="236.455"
      gradientUnits="userSpaceOnUse">
      <stop stop-color="#9C3131" />
      <stop offset="0.565625" stop-color="#7A0000" />
      <stop offset="1" stop-color="#200000" />
    </linearGradient>
    <linearGradient id="paint6_linear_172_65" x1="184.174" y1="106.303" x2="106.508" y2="195.503"
      gradientUnits="userSpaceOnUse">
      <stop stop-color="#337EE0" />
      <stop offset="0.442752" stop-color="#265798" />
      <stop offset="0.86769" stop-color="#0F3668" />
    </linearGradient>
    <linearGradient id="paint7_linear_172_65" x1="195.526" y1="90.0004" x2="107.423" y2="208.01"
      gradientUnits="userSpaceOnUse">
      <stop stop-color="#08043D" />
      <stop offset="0.0001" stop-color="#0B008B" />
      <stop offset="0.381579" stop-color="#08043D" />
      <stop offset="1" stop-color="#020016" />
    </linearGradient>
    <linearGradient id="paint8_linear_172_65" x1="188.914" y1="103.669" x2="112.978" y2="198.156"
      gradientUnits="userSpaceOnUse">
      <stop stop-color="white" />
      <stop offset="0.336458" stop-color="#BDD3DF" />
      <stop offset="1" stop-color="#8C9DA7" />
    </linearGradient>
    <linearGradient id="paint9_linear_172_65" x1="192.264" y1="92.6746" x2="111.43" y2="202.834"
      gradientUnits="userSpaceOnUse">
      <stop stop-color="#828282" />
      <stop offset="0.39496" stop-color="#535353" />
      <stop offset="1" stop-color="#131313" />
    </linearGradient>
    <linearGradient id="paint10_linear_172_65" x1="178.775" y1="113.613" x2="126.006" y2="182.646"
      gradientUnits="userSpaceOnUse">
      <stop stop-color="white" />
      <stop offset="0.336458" stop-color="#BDD3DF" />
      <stop offset="1" stop-color="#8C9DA7" />
    </linearGradient>
    <linearGradient id="paint11_linear_172_65" x1="181.252" y1="105.881" x2="125.314" y2="186.027"
      gradientUnits="userSpaceOnUse">
      <stop stop-color="#828282" />
      <stop offset="0.39496" stop-color="#535353" />
      <stop offset="1" stop-color="#131313" />
    </linearGradient>
  </defs>
</svg>